<svg xmlns="http://www.w3.org/2000/svg" viewBox="0 0 800 260" width="800" height="260">
  <rect x="0" y="0" width="800" height="260" fill="#05061a"/>
  <rect x="249" y="43" width="2" height="2" fill="#FFFFFF" opacity="0.6"/>
  <rect x="384" y="44" width="1" height="1" fill="#FFFFFF" opacity="0.6"/>
  <rect x="626" y="6" width="1" height="1" fill="#8FE7FF" opacity="0.6"/>
  <rect x="570" y="20" width="1" height="1" fill="#FFEFA0" opacity="0.6"/>
  <rect x="559" y="59" width="2" height="2" fill="#FFEFA0" opacity="0.6"/>
  <rect x="412" y="46" width="1" height="1" fill="#FFFFFF" opacity="0.6"/>
  <rect x="656" y="15" width="2" height="2" fill="#FFEFA0" opacity="0.6"/>
  <rect x="765" y="6" width="2" height="2" fill="#FFFFFF" opacity="0.6"/>
  <rect x="169" y="54" width="2" height="2" fill="#FFFFFF" opacity="0.6"/>
  <rect x="314" y="55" width="1" height="1" fill="#8FE7FF" opacity="0.6"/>
  <rect x="490" y="44" width="2" height="2" fill="#FFEFA0" opacity="0.6"/>
  <rect x="737" y="56" width="1" height="1" fill="#FFEFA0" opacity="0.6"/>
  <rect x="751" y="57" width="2" height="2" fill="#FFEFA0" opacity="0.6"/>
  <rect x="143" y="29" width="1" height="1" fill="#FFFFFF" opacity="0.6"/>
  <rect x="145" y="37" width="1" height="1" fill="#8FE7FF" opacity="0.6"/>
  <rect x="694" y="33" width="2" height="2" fill="#8FE7FF" opacity="0.6"/>
  <rect x="437" y="38" width="1" height="1" fill="#8FE7FF" opacity="0.6"/>
  <rect x="552" y="43" width="1" height="1" fill="#FFFFFF" opacity="0.6"/>
  <rect x="350" y="49" width="1" height="1" fill="#8FE7FF" opacity="0.6"/>
  <rect x="626" y="48" width="2" height="2" fill="#FFFFFF" opacity="0.6"/>
  <rect x="721" y="26" width="2" height="2" fill="#FFFFFF" opacity="0.6"/>
  <rect x="736" y="47" width="1" height="1" fill="#8FE7FF" opacity="0.6"/>
  <rect x="297" y="13" width="1" height="1" fill="#FFEFA0" opacity="0.6"/>
  <rect x="660" y="36" width="1" height="1" fill="#8FE7FF" opacity="0.6"/>
  <rect x="74" y="32" width="1" height="1" fill="#FFFFFF" opacity="0.6"/>
  <rect x="306" y="33" width="1" height="1" fill="#FFFFFF" opacity="0.6"/>
  <rect x="51" y="44" width="2" height="2" fill="#FFFFFF" opacity="0.6"/>
  <rect x="392" y="51" width="2" height="2" fill="#8FE7FF" opacity="0.6"/>
  <rect x="570" y="23" width="2" height="2" fill="#FFFFFF" opacity="0.6"/>
  <rect x="42" y="25" width="1" height="1" fill="#FFFFFF" opacity="0.6"/>
  <rect x="116" y="44" width="2" height="2" fill="#FFFFFF" opacity="0.6"/>
  <rect x="208" y="32" width="1" height="1" fill="#8FE7FF" opacity="0.6"/>
  <rect x="165" y="50" width="1" height="1" fill="#8FE7FF" opacity="0.6"/>
  <rect x="327" y="29" width="1" height="1" fill="#FFEFA0" opacity="0.6"/>
  <rect x="391" y="35" width="2" height="2" fill="#FFEFA0" opacity="0.6"/>
  <rect x="665" y="44" width="2" height="2" fill="#FFFFFF" opacity="0.6"/>
  <rect x="641" y="57" width="2" height="2" fill="#8FE7FF" opacity="0.6"/>
  <rect x="447" y="46" width="2" height="2" fill="#FFFFFF" opacity="0.6"/>
  <rect x="314" y="33" width="1" height="1" fill="#8FE7FF" opacity="0.6"/>
  <rect x="567" y="27" width="1" height="1" fill="#FFEFA0" opacity="0.6"/>
  <rect x="599" y="26" width="1" height="1" fill="#FFEFA0" opacity="0.6"/>
  <rect x="636" y="43" width="2" height="2" fill="#FFFFFF" opacity="0.6"/>
  <rect x="67" y="46" width="2" height="2" fill="#8FE7FF" opacity="0.6"/>
  <rect x="483" y="28" width="2" height="2" fill="#8FE7FF" opacity="0.6"/>
  <rect x="629" y="51" width="1" height="1" fill="#FFEFA0" opacity="0.6"/>
  <rect x="40" y="34" width="8" height="8" fill="rgb(253,138,46)"/>
  <rect x="48" y="34" width="8" height="8" fill="rgb(253,138,46)"/>
  <rect x="72" y="34" width="8" height="8" fill="rgb(253,138,46)"/>
  <rect x="80" y="34" width="8" height="8" fill="rgb(253,138,46)"/>
  <rect x="48" y="42" width="8" height="8" fill="rgb(253,138,46)"/>
  <rect x="56" y="42" width="8" height="8" fill="rgb(253,138,46)"/>
  <rect x="64" y="42" width="8" height="8" fill="rgb(253,138,46)"/>
  <rect x="72" y="42" width="8" height="8" fill="rgb(253,138,46)"/>
  <rect x="32" y="50" width="8" height="8" fill="rgb(253,138,46)"/>
  <rect x="40" y="50" width="8" height="8" fill="rgb(253,138,46)"/>
  <rect x="48" y="50" width="8" height="8" fill="rgb(253,138,46)"/>
  <rect x="56" y="50" width="8" height="8" fill="rgb(253,138,46)"/>
  <rect x="64" y="50" width="8" height="8" fill="rgb(253,138,46)"/>
  <rect x="72" y="50" width="8" height="8" fill="rgb(253,138,46)"/>
  <rect x="80" y="50" width="8" height="8" fill="rgb(253,138,46)"/>
  <rect x="88" y="50" width="8" height="8" fill="rgb(253,138,46)"/>
  <rect x="24" y="58" width="8" height="8" fill="rgb(253,138,46)"/>
  <rect x="40" y="58" width="8" height="8" fill="rgb(253,138,46)"/>
  <rect x="48" y="58" width="8" height="8" fill="rgb(253,138,46)"/>
  <rect x="56" y="58" width="8" height="8" fill="rgb(253,138,46)"/>
  <rect x="64" y="58" width="8" height="8" fill="rgb(253,138,46)"/>
  <rect x="72" y="58" width="8" height="8" fill="rgb(253,138,46)"/>
  <rect x="80" y="58" width="8" height="8" fill="rgb(253,138,46)"/>
  <rect x="96" y="58" width="8" height="8" fill="rgb(253,138,46)"/>
  <rect x="32" y="66" width="8" height="8" fill="rgb(253,138,46)"/>
  <rect x="48" y="66" width="8" height="8" fill="rgb(253,138,46)"/>
  <rect x="56" y="66" width="8" height="8" fill="rgb(253,138,46)"/>
  <rect x="72" y="66" width="8" height="8" fill="rgb(253,138,46)"/>
  <rect x="80" y="66" width="8" height="8" fill="rgb(253,138,46)"/>
  <rect x="96" y="66" width="8" height="8" fill="rgb(253,138,46)"/>
  <rect x="40" y="74" width="8" height="8" fill="rgb(253,138,46)"/>
  <rect x="48" y="74" width="8" height="8" fill="rgb(253,138,46)"/>
  <rect x="56" y="74" width="8" height="8" fill="rgb(253,138,46)"/>
  <rect x="64" y="74" width="8" height="8" fill="rgb(253,138,46)"/>
  <rect x="72" y="74" width="8" height="8" fill="rgb(253,138,46)"/>
  <rect x="80" y="74" width="8" height="8" fill="rgb(253,138,46)"/>
  <rect x="32" y="82" width="8" height="8" fill="rgb(253,138,46)"/>
  <rect x="88" y="82" width="8" height="8" fill="rgb(253,138,46)"/>
  <text x="64" y="120" font-family="'Courier New', monospace" font-size="11" fill="#7C8BC0" text-anchor="middle">invader</text>
  <rect x="176" y="34" width="8" height="8" fill="rgb(110,143,224)"/>
  <rect x="184" y="34" width="8" height="8" fill="rgb(110,143,224)"/>
  <rect x="192" y="34" width="8" height="8" fill="rgb(110,143,224)"/>
  <rect x="200" y="34" width="8" height="8" fill="rgb(110,143,224)"/>
  <rect x="168" y="42" width="8" height="8" fill="rgb(110,143,224)"/>
  <rect x="176" y="42" width="8" height="8" fill="rgb(110,143,224)"/>
  <rect x="184" y="42" width="8" height="8" fill="rgb(110,143,224)"/>
  <rect x="192" y="42" width="8" height="8" fill="rgb(110,143,224)"/>
  <rect x="200" y="42" width="8" height="8" fill="rgb(110,143,224)"/>
  <rect x="208" y="42" width="8" height="8" fill="rgb(110,143,224)"/>
  <rect x="160" y="50" width="8" height="8" fill="rgb(110,143,224)"/>
  <rect x="168" y="50" width="8" height="8" fill="rgb(110,143,224)"/>
  <rect x="176" y="50" width="8" height="8" fill="rgb(110,143,224)"/>
  <rect x="184" y="50" width="8" height="8" fill="rgb(110,143,224)"/>
  <rect x="192" y="50" width="8" height="8" fill="rgb(110,143,224)"/>
  <rect x="200" y="50" width="8" height="8" fill="rgb(110,143,224)"/>
  <rect x="208" y="50" width="8" height="8" fill="rgb(110,143,224)"/>
  <rect x="216" y="50" width="8" height="8" fill="rgb(110,143,224)"/>
  <rect x="152" y="58" width="8" height="8" fill="rgb(110,143,224)"/>
  <rect x="160" y="58" width="8" height="8" fill="rgb(110,143,224)"/>
  <rect x="168" y="58" width="8" height="8" fill="rgb(110,143,224)"/>
  <rect x="176" y="58" width="8" height="8" fill="rgb(110,143,224)"/>
  <rect x="184" y="58" width="8" height="8" fill="rgb(110,143,224)"/>
  <rect x="192" y="58" width="8" height="8" fill="rgb(110,143,224)"/>
  <rect x="200" y="58" width="8" height="8" fill="rgb(110,143,224)"/>
  <rect x="208" y="58" width="8" height="8" fill="rgb(110,143,224)"/>
  <rect x="216" y="58" width="8" height="8" fill="rgb(110,143,224)"/>
  <rect x="224" y="58" width="8" height="8" fill="rgb(110,143,224)"/>
  <rect x="168" y="66" width="8" height="8" fill="rgb(110,143,224)"/>
  <rect x="192" y="66" width="8" height="8" fill="rgb(110,143,224)"/>
  <rect x="216" y="66" width="8" height="8" fill="rgb(110,143,224)"/>
  <text x="192" y="120" font-family="'Courier New', monospace" font-size="11" fill="#7C8BC0" text-anchor="middle">ufo</text>
  <rect x="288" y="34" width="8" height="8" fill="rgb(219,66,133)"/>
  <rect x="296" y="34" width="8" height="8" fill="rgb(219,66,133)"/>
  <rect x="312" y="34" width="8" height="8" fill="rgb(219,66,133)"/>
  <rect x="320" y="34" width="8" height="8" fill="rgb(219,66,133)"/>
  <rect x="280" y="42" width="8" height="8" fill="rgb(219,66,133)"/>
  <rect x="288" y="42" width="8" height="8" fill="rgb(219,66,133)"/>
  <rect x="296" y="42" width="8" height="8" fill="rgb(219,66,133)"/>
  <rect x="304" y="42" width="8" height="8" fill="rgb(219,66,133)"/>
  <rect x="312" y="42" width="8" height="8" fill="rgb(219,66,133)"/>
  <rect x="320" y="42" width="8" height="8" fill="rgb(219,66,133)"/>
  <rect x="328" y="42" width="8" height="8" fill="rgb(219,66,133)"/>
  <rect x="280" y="50" width="8" height="8" fill="rgb(219,66,133)"/>
  <rect x="288" y="50" width="8" height="8" fill="rgb(219,66,133)"/>
  <rect x="296" y="50" width="8" height="8" fill="rgb(219,66,133)"/>
  <rect x="304" y="50" width="8" height="8" fill="rgb(219,66,133)"/>
  <rect x="312" y="50" width="8" height="8" fill="rgb(219,66,133)"/>
  <rect x="320" y="50" width="8" height="8" fill="rgb(219,66,133)"/>
  <rect x="328" y="50" width="8" height="8" fill="rgb(219,66,133)"/>
  <rect x="288" y="58" width="8" height="8" fill="rgb(219,66,133)"/>
  <rect x="296" y="58" width="8" height="8" fill="rgb(219,66,133)"/>
  <rect x="304" y="58" width="8" height="8" fill="rgb(219,66,133)"/>
  <rect x="312" y="58" width="8" height="8" fill="rgb(219,66,133)"/>
  <rect x="320" y="58" width="8" height="8" fill="rgb(219,66,133)"/>
  <rect x="296" y="66" width="8" height="8" fill="rgb(219,66,133)"/>
  <rect x="304" y="66" width="8" height="8" fill="rgb(219,66,133)"/>
  <rect x="312" y="66" width="8" height="8" fill="rgb(219,66,133)"/>
  <rect x="304" y="74" width="8" height="8" fill="rgb(219,66,133)"/>
  <text x="320" y="120" font-family="'Courier New', monospace" font-size="11" fill="#7C8BC0" text-anchor="middle">heart</text>
  <rect x="432" y="34" width="8" height="8" fill="rgb(255,220,80)"/>
  <rect x="432" y="42" width="8" height="8" fill="rgb(255,220,80)"/>
  <rect x="408" y="50" width="8" height="8" fill="rgb(255,220,80)"/>
  <rect x="432" y="50" width="8" height="8" fill="rgb(255,220,80)"/>
  <rect x="456" y="50" width="8" height="8" fill="rgb(255,220,80)"/>
  <rect x="416" y="58" width="8" height="8" fill="rgb(255,220,80)"/>
  <rect x="424" y="58" width="8" height="8" fill="rgb(255,220,80)"/>
  <rect x="432" y="58" width="8" height="8" fill="rgb(255,220,80)"/>
  <rect x="440" y="58" width="8" height="8" fill="rgb(255,220,80)"/>
  <rect x="448" y="58" width="8" height="8" fill="rgb(255,220,80)"/>
  <rect x="408" y="66" width="8" height="8" fill="rgb(255,220,80)"/>
  <rect x="432" y="66" width="8" height="8" fill="rgb(255,220,80)"/>
  <rect x="456" y="66" width="8" height="8" fill="rgb(255,220,80)"/>
  <rect x="432" y="74" width="8" height="8" fill="rgb(255,220,80)"/>
  <rect x="432" y="82" width="8" height="8" fill="rgb(255,220,80)"/>
  <text x="448" y="120" font-family="'Courier New', monospace" font-size="11" fill="#7C8BC0" text-anchor="middle">star</text>
  <rect x="552" y="34" width="8" height="8" fill="rgb(100,200,230)"/>
  <rect x="544" y="42" width="8" height="8" fill="rgb(100,200,230)"/>
  <rect x="552" y="42" width="8" height="8" fill="rgb(100,200,230)"/>
  <rect x="560" y="42" width="8" height="8" fill="rgb(100,200,230)"/>
  <rect x="544" y="50" width="8" height="8" fill="rgb(100,200,230)"/>
  <rect x="552" y="50" width="8" height="8" fill="rgb(100,200,230)"/>
  <rect x="560" y="50" width="8" height="8" fill="rgb(100,200,230)"/>
  <rect x="536" y="58" width="8" height="8" fill="rgb(100,200,230)"/>
  <rect x="544" y="58" width="8" height="8" fill="rgb(100,200,230)"/>
  <rect x="552" y="58" width="8" height="8" fill="rgb(100,200,230)"/>
  <rect x="560" y="58" width="8" height="8" fill="rgb(100,200,230)"/>
  <rect x="568" y="58" width="8" height="8" fill="rgb(100,200,230)"/>
  <rect x="536" y="66" width="8" height="8" fill="rgb(100,200,230)"/>
  <rect x="544" y="66" width="8" height="8" fill="rgb(100,200,230)"/>
  <rect x="552" y="66" width="8" height="8" fill="rgb(100,200,230)"/>
  <rect x="560" y="66" width="8" height="8" fill="rgb(100,200,230)"/>
  <rect x="568" y="66" width="8" height="8" fill="rgb(100,200,230)"/>
  <rect x="536" y="74" width="8" height="8" fill="rgb(100,200,230)"/>
  <rect x="544" y="74" width="8" height="8" fill="rgb(100,200,230)"/>
  <rect x="552" y="74" width="8" height="8" fill="rgb(100,200,230)"/>
  <rect x="560" y="74" width="8" height="8" fill="rgb(100,200,230)"/>
  <rect x="568" y="74" width="8" height="8" fill="rgb(100,200,230)"/>
  <rect x="536" y="82" width="8" height="8" fill="rgb(100,200,230)"/>
  <rect x="552" y="82" width="8" height="8" fill="rgb(100,200,230)"/>
  <rect x="568" y="82" width="8" height="8" fill="rgb(100,200,230)"/>
  <rect x="536" y="90" width="8" height="8" fill="rgb(100,200,230)"/>
  <rect x="568" y="90" width="8" height="8" fill="rgb(100,200,230)"/>
  <rect x="544" y="98" width="8" height="8" fill="rgb(100,200,230)"/>
  <rect x="560" y="98" width="8" height="8" fill="rgb(100,200,230)"/>
  <text x="576" y="120" font-family="'Courier New', monospace" font-size="11" fill="#7C8BC0" text-anchor="middle">rocket</text>
  <rect x="680" y="34" width="8" height="8" fill="rgb(220,90,90)"/>
  <rect x="688" y="34" width="8" height="8" fill="rgb(220,90,90)"/>
  <rect x="696" y="34" width="8" height="8" fill="rgb(220,90,90)"/>
  <rect x="672" y="42" width="8" height="8" fill="rgb(220,90,90)"/>
  <rect x="680" y="42" width="8" height="8" fill="rgb(220,90,90)"/>
  <rect x="688" y="42" width="8" height="8" fill="rgb(220,90,90)"/>
  <rect x="696" y="42" width="8" height="8" fill="rgb(220,90,90)"/>
  <rect x="704" y="42" width="8" height="8" fill="rgb(220,90,90)"/>
  <rect x="664" y="50" width="8" height="8" fill="rgb(220,90,90)"/>
  <rect x="672" y="50" width="8" height="8" fill="rgb(220,90,90)"/>
  <rect x="680" y="50" width="8" height="8" fill="rgb(220,90,90)"/>
  <rect x="688" y="50" width="8" height="8" fill="rgb(220,90,90)"/>
  <rect x="696" y="50" width="8" height="8" fill="rgb(220,90,90)"/>
  <rect x="704" y="50" width="8" height="8" fill="rgb(220,90,90)"/>
  <rect x="712" y="50" width="8" height="8" fill="rgb(220,90,90)"/>
  <rect x="680" y="58" width="8" height="8" fill="rgb(220,90,90)"/>
  <rect x="688" y="58" width="8" height="8" fill="rgb(220,90,90)"/>
  <rect x="696" y="58" width="8" height="8" fill="rgb(220,90,90)"/>
  <rect x="680" y="66" width="8" height="8" fill="rgb(220,90,90)"/>
  <rect x="688" y="66" width="8" height="8" fill="rgb(220,90,90)"/>
  <rect x="696" y="66" width="8" height="8" fill="rgb(220,90,90)"/>
  <rect x="672" y="74" width="8" height="8" fill="rgb(220,90,90)"/>
  <rect x="680" y="74" width="8" height="8" fill="rgb(220,90,90)"/>
  <rect x="696" y="74" width="8" height="8" fill="rgb(220,90,90)"/>
  <rect x="704" y="74" width="8" height="8" fill="rgb(220,90,90)"/>
  <text x="704" y="120" font-family="'Courier New', monospace" font-size="11" fill="#7C8BC0" text-anchor="middle">mushroom</text>
  <g font-family="'Courier New', monospace" font-weight="bold">
    <text x="26" y="222" font-size="40" fill="#000000" opacity="0.5">git-vibes</text>
    <text x="24" y="220" font-size="40" fill="#F5FBFF">git-vibes</text>
  </g>
  <text x="26" y="245" font-family="'Courier New', monospace" font-size="14" fill="#8FA0C8">commit stamps &amp; weekly fortune</text>
</svg>
